<svg xmlns="http://www.w3.org/2000/svg" width="18" height="18" viewBox="0 0 18 18" fill="none">
  <path fill-rule="evenodd" clip-rule="evenodd" d="M9 16.5C5.46447 16.5 3.6967 16.5 2.59835 15.4017C1.5 14.3033 1.5 12.5355 1.5 9C1.5 5.46447 1.5 3.6967 2.59835 2.59835C3.6967 1.5 5.46447 1.5 9 1.5C12.5355 1.5 14.3033 1.5 15.4017 2.59835C16.5 3.6967 16.5 5.46447 16.5 9C16.5 12.5355 16.5 14.3033 15.4017 15.4017C14.3033 16.5 12.5355 16.5 9 16.5ZM9 6.1875C9.31066 6.1875 9.5625 6.43934 9.5625 6.75V8.43752H11.25C11.5607 8.43752 11.8125 8.68936 11.8125 9.00002C11.8125 9.31068 11.5607 9.56252 11.25 9.56252H9.5625L9.5625 11.25C9.5625 11.5607 9.31066 11.8125 9 11.8125C8.68934 11.8125 8.4375 11.5607 8.4375 11.25V9.56252H6.75C6.43934 9.56252 6.1875 9.31068 6.1875 9.00002C6.1875 8.68936 6.43934 8.43752 6.75 8.43752H8.4375L8.4375 6.75C8.4375 6.43934 8.68934 6.1875 9 6.1875Z" fill="#105090"/>
</svg>