<svg xmlns="http://www.w3.org/2000/svg" width="20" height="20" viewBox="0 0 20 20" fill="none">
  <path d="M12.9154 6.24998C12.9154 7.86081 11.6095 9.16665 9.9987 9.16665C8.38787 9.16665 7.08203 7.86081 7.08203 6.24998C7.08203 4.63915 8.38787 3.33331 9.9987 3.33331C11.6095 3.33331 12.9154 4.63915 12.9154 6.24998Z" fill="#9295AB"/>
  <path d="M15 13.75C15 15.3608 12.7614 16.6666 10 16.6666C7.23858 16.6666 5 15.3608 5 13.75C5 12.1391 7.23858 10.8333 10 10.8333C12.7614 10.8333 15 12.1391 15 13.75Z" fill="#9295AB"/>
  <path d="M5.93634 4.16669C6.08423 4.16669 6.2286 4.1812 6.36801 4.20882C6.02838 4.81207 5.83464 5.50842 5.83464 6.25002C5.83464 6.97357 6.01906 7.65404 6.34346 8.24699C6.21167 8.27154 6.07557 8.28441 5.93634 8.28441C4.75766 8.28441 3.80216 7.36262 3.80216 6.22555C3.80216 5.08847 4.75766 4.16669 5.93634 4.16669Z" fill="#9295AB"/>
  <path d="M4.54075 15.8217C4.06749 15.2559 3.7513 14.5617 3.7513 13.75C3.7513 12.9632 4.04845 12.2867 4.49779 11.7306C2.91055 11.8537 1.66797 12.7219 1.66797 13.7745C1.66797 14.837 2.93239 15.7115 4.54075 15.8217Z" fill="#9295AB"/>
  <path d="M14.1662 6.25002C14.1662 6.97357 13.9818 7.65404 13.6574 8.24699C13.7891 8.27155 13.9253 8.28441 14.0645 8.28441C15.2432 8.28441 16.1987 7.36262 16.1987 6.22555C16.1987 5.08847 15.2432 4.16669 14.0645 4.16669C13.9166 4.16669 13.7722 4.1812 13.6328 4.20882C13.9724 4.81207 14.1662 5.50842 14.1662 6.25002Z" fill="#9295AB"/>
  <path d="M15.4601 15.8217C17.0684 15.7115 18.3329 14.837 18.3329 13.7745C18.3329 12.7219 17.0903 11.8537 15.503 11.7306C15.9524 12.2867 16.2495 12.9632 16.2495 13.75C16.2495 14.5617 15.9333 15.2559 15.4601 15.8217Z" fill="#9295AB"/>
</svg>