<svg xmlns="http://www.w3.org/2000/svg" width="32" height="32" viewBox="0 0 32 32" fill="none">
  <circle opacity="0.1" cx="16" cy="16" r="16" fill="#AA0000"/>
  <path fill-rule="evenodd" clip-rule="evenodd" d="M22.7553 10.7836C23.0845 10.7836 23.3586 11.0625 23.3586 11.4174V11.7455C23.3586 12.0918 23.0845 12.3793 22.7553 12.3793H8.72914C8.39909 12.3793 8.125 12.0918 8.125 11.7455V11.4174C8.125 11.0625 8.39909 10.7836 8.72914 10.7836H11.1967C11.698 10.7836 12.1342 10.4201 12.247 9.90721L12.3762 9.31832C12.577 8.51616 13.238 7.9834 13.9944 7.9834H17.4892C18.2374 7.9834 18.9057 8.51616 19.0991 9.27601L19.2374 9.90635C19.3494 10.4201 19.7856 10.7836 20.2877 10.7836H22.7553ZM21.5024 22.7786C21.7601 20.329 22.2111 14.5092 22.2111 14.4505C22.2276 14.2726 22.1708 14.1042 22.058 13.9687C21.937 13.8417 21.7839 13.7666 21.6152 13.7666H9.87642C9.70686 13.7666 9.54554 13.8417 9.4336 13.9687C9.32002 14.1042 9.26405 14.2726 9.27228 14.4505C9.27379 14.4613 9.28997 14.6663 9.31703 15.009C9.43724 16.5315 9.77202 20.772 9.98836 22.7786C10.1415 24.2569 11.0921 25.186 12.4691 25.2197C13.5317 25.2447 14.6264 25.2534 15.7458 25.2534C16.8002 25.2534 17.871 25.2447 18.9665 25.2197C20.3913 25.1946 21.3411 24.2819 21.5024 22.7786Z" fill="#AA0000"/>
</svg>