<svg xmlns="http://www.w3.org/2000/svg" width="15" height="15" viewBox="0 0 15 15" fill="none">
  <path d="M7.12505 11.3507L7.12506 11.3507L11.7475 6.72832C11.1184 6.46648 10.3732 6.03638 9.66853 5.33168C8.96372 4.62686 8.53359 3.88161 8.27176 3.25244L3.64926 7.87494L3.64924 7.87496C3.28854 8.23566 3.10817 8.41603 2.95306 8.6149C2.77008 8.84949 2.61321 9.10332 2.48521 9.37189C2.37671 9.59956 2.29605 9.84155 2.13473 10.3255L1.28403 12.8776C1.20464 13.1158 1.26663 13.3783 1.44414 13.5559C1.62166 13.7334 1.88424 13.7954 2.1224 13.716L4.67449 12.8653C5.15845 12.704 5.40044 12.6233 5.62811 12.5148C5.89668 12.3868 6.15051 12.2299 6.3851 12.0469C6.58397 11.8918 6.76434 11.7115 7.12505 11.3507Z" fill="#34E045"/>
  <path d="M13.0301 5.44566C13.99 4.48584 13.99 2.92968 13.0301 1.96986C12.0703 1.01005 10.5142 1.01005 9.55434 1.96986L8.99994 2.52426C9.00753 2.54719 9.0154 2.57043 9.02357 2.59397C9.22678 3.17968 9.61019 3.9475 10.3314 4.66876C11.0527 5.39002 11.8205 5.77343 12.4062 5.97663C12.4297 5.98477 12.4528 5.99261 12.4756 6.00016L13.0301 5.44566Z" fill="#34E045"/>
</svg>