<svg width="14" height="14" viewBox="0 0 14 14" fill="none" xmlns="http://www.w3.org/2000/svg"><path d="M12.0174 8.36541C11.6258 9.41748 11.6492 10.6746 12.4431 11.4683L13.5123 12.5373C13.7817 12.8065 13.7817 13.2431 13.5124 13.5124C13.2431 13.7817 12.8065 13.7817 12.5373 13.5123L11.4683 12.4431C10.6746 11.6492 9.41748 11.6258 8.36541 12.0174C7.67833 12.2731 6.94627 12.4063 6.20262 12.4052C2.77877 12.4052 0 9.62646 0 6.20262C0 2.77877 2.77877 0 6.20262 0C9.62646 0 12.4052 2.77877 12.4052 6.20262C12.4063 6.94627 12.2731 7.67833 12.0174 8.36541ZM9.66575 9.56237C10.5404 8.66291 11.0289 7.45722 11.0269 6.20262C11.0269 3.53756 8.86768 1.37836 6.20262 1.37836C3.53756 1.37836 1.37836 3.53756 1.37836 6.20262C1.37836 8.86768 3.53756 11.0269 6.20262 11.0269C7.45722 11.0289 8.66291 10.5404 9.56237 9.66575L9.66575 9.56237Z" fill="#9295AB"/></svg>