<svg width="16" height="16" viewBox="0 0 16 16" fill="none" xmlns="http://www.w3.org/2000/svg">
<circle opacity="0.3" cx="8" cy="8" r="8" fill="#A6FFAE"/>
<g clip-path="url(#clip0_0_1)">
<path d="M8.24935 6.99984C8.24935 6.86177 8.13742 6.74984 7.99935 6.74984C7.86128 6.74984 7.74935 6.86177 7.74935 6.99984L7.74935 7.74985H6.99935C6.86128 7.74985 6.74935 7.86177 6.74935 7.99985C6.74935 8.13792 6.86128 8.24985 6.99935 8.24985H7.74935V8.99984C7.74935 9.13791 7.86128 9.24984 7.99935 9.24984C8.13742 9.24984 8.24935 9.13791 8.24935 8.99984L8.24935 8.24985H8.99935C9.13742 8.24985 9.24935 8.13792 9.24935 7.99985C9.24935 7.86177 9.13742 7.74985 8.99935 7.74985H8.24935V6.99984Z" fill="#34E045"/>
<path fill-rule="evenodd" clip-rule="evenodd" d="M8.01848 4.4165H7.98022C7.21076 4.4165 6.60775 4.4165 6.13725 4.47975C5.65567 4.5445 5.27566 4.67961 4.97739 4.97788C4.67912 5.27615 4.54401 5.65616 4.47926 6.13774C4.41601 6.60823 4.41601 7.21124 4.41602 7.98071V8.01896C4.41601 8.78842 4.41601 9.39144 4.47926 9.86194C4.54401 10.3435 4.67912 10.7235 4.97739 11.0218C5.27566 11.3201 5.65567 11.4552 6.13725 11.5199C6.60775 11.5832 7.21076 11.5832 7.98022 11.5832H8.01847C8.78794 11.5832 9.39095 11.5832 9.86145 11.5199C10.343 11.4552 10.723 11.3201 11.0213 11.0218C11.3196 10.7235 11.4547 10.3435 11.5194 9.86194C11.5827 9.39144 11.5827 8.78843 11.5827 8.01896V7.98071C11.5827 7.21125 11.5827 6.60824 11.5194 6.13774C11.4547 5.65616 11.3196 5.27615 11.0213 4.97788C10.723 4.67961 10.343 4.5445 9.86145 4.47975C9.39095 4.4165 8.78794 4.4165 8.01848 4.4165ZM5.33095 5.33144C5.52083 5.14155 5.77774 5.03259 6.20387 4.97529C6.6372 4.91704 7.20661 4.9165 7.99935 4.9165C8.79209 4.9165 9.3615 4.91704 9.79482 4.97529C10.221 5.03259 10.4779 5.14155 10.6677 5.33144C10.8576 5.52132 10.9666 5.77823 11.0239 6.20436C11.0822 6.63769 11.0827 7.2071 11.0827 7.99984C11.0827 8.79258 11.0822 9.36199 11.0239 9.79531C10.9666 10.2214 10.8576 10.4784 10.6677 10.6682C10.4779 10.8581 10.221 10.9671 9.79482 11.0244C9.3615 11.0826 8.79209 11.0832 7.99935 11.0832C7.20661 11.0832 6.6372 11.0826 6.20387 11.0244C5.77774 10.9671 5.52083 10.8581 5.33095 10.6682C5.14106 10.4784 5.0321 10.2214 4.97481 9.79531C4.91655 9.36199 4.91602 8.79258 4.91602 7.99984C4.91602 7.2071 4.91655 6.63769 4.97481 6.20436C5.0321 5.77823 5.14106 5.52132 5.33095 5.33144Z" fill="#34E045"/>
</g>
<defs>
<clipPath id="clip0_0_1">
<rect width="8" height="8" fill="white" transform="translate(4 4)"/>
</clipPath>
</defs>
</svg>
