<svg width="16" height="16" viewBox="0 0 16 16" fill="none" xmlns="http://www.w3.org/2000/svg">
<circle opacity="0.3" cx="8" cy="8" r="8" fill="#FFC5C5"/>
<path fill-rule="evenodd" clip-rule="evenodd" d="M4.48887 6.15709C4.58629 6.05925 4.74459 6.05892 4.84242 6.15635L6.14864 7.45711C6.3199 7.62765 6.43094 7.73748 6.52341 7.80776C6.61011 7.87366 6.65066 7.88103 6.67751 7.88104C6.70437 7.88105 6.74492 7.87371 6.83167 7.80787C6.92419 7.73766 7.03531 7.62791 7.20669 7.45749L7.29811 7.36659C7.45439 7.21118 7.58909 7.07722 7.71143 6.98436C7.84257 6.88483 7.98829 6.80952 8.16769 6.8095C8.34709 6.80948 8.49282 6.88475 8.62399 6.98426C8.74635 7.07709 8.88108 7.21102 9.03741 7.3664L11.0827 9.39921V8.15155C11.0827 8.01348 11.1946 7.90155 11.3327 7.90155C11.4708 7.90155 11.5827 8.01348 11.5827 8.15155V10.0002C11.5827 10.1382 11.4708 10.2502 11.3327 10.2502H9.47197C9.3339 10.2502 9.22197 10.1382 9.22197 10.0002C9.22197 9.86209 9.3339 9.75016 9.47197 9.75016H10.7265L8.69656 7.73259C8.52529 7.56236 8.41425 7.45274 8.32179 7.3826C8.23512 7.31685 8.19459 7.3095 8.16775 7.3095C8.1409 7.30951 8.10037 7.31686 8.01371 7.38264C7.92128 7.4528 7.81026 7.56244 7.63903 7.73271L7.5476 7.82362C7.39118 7.97918 7.25637 8.11325 7.13393 8.20616C7.00269 8.30576 6.85686 8.38111 6.67733 8.38104C6.4978 8.38097 6.35202 8.30553 6.22086 8.20583C6.09849 8.11282 5.96377 7.97865 5.80746 7.82298C5.8036 7.81913 5.79972 7.81527 5.79583 7.8114L4.48961 6.51064C4.39177 6.41322 4.39144 6.25493 4.48887 6.15709Z" fill="#AA0000"/>
</svg>
