<svg width="16" height="16" viewBox="0 0 16 16" fill="none" xmlns="http://www.w3.org/2000/svg">
<circle opacity="0.3" cx="8" cy="8" r="8" fill="#A6FFAE"/>
<path fill-rule="evenodd" clip-rule="evenodd" d="M9.22197 6.3335C9.22197 6.19542 9.3339 6.0835 9.47197 6.0835H11.3327C11.4708 6.0835 11.5827 6.19542 11.5827 6.3335V8.18211C11.5827 8.32018 11.4708 8.43211 11.3327 8.43211C11.1946 8.43211 11.0827 8.32018 11.0827 8.18211V6.93445L9.0374 8.96726C8.88108 9.12264 8.74635 9.25657 8.62399 9.3494C8.49282 9.4489 8.34709 9.52418 8.16769 9.52416C7.98829 9.52413 7.84257 9.44883 7.71143 9.34929C7.58909 9.25644 7.45439 9.12249 7.29811 8.96707L7.20669 8.87616C7.03531 8.70575 6.92419 8.596 6.83167 8.52578C6.74492 8.45995 6.70437 8.45261 6.67751 8.45262C6.65066 8.45263 6.61011 8.46 6.52341 8.5259C6.43094 8.59618 6.3199 8.70601 6.14864 8.87655L4.84242 10.1773C4.74459 10.2747 4.58629 10.2744 4.48887 10.1766C4.39144 10.0787 4.39177 9.92044 4.48961 9.82302L5.80746 8.51068C5.96377 8.35501 6.09849 8.22083 6.22086 8.12783C6.35202 8.02813 6.4978 7.95268 6.67733 7.95262C6.85686 7.95255 7.00269 8.0279 7.13393 8.12749C7.25637 8.22041 7.39118 8.35448 7.5476 8.51004L7.63903 8.60095C7.81026 8.77122 7.92128 8.88086 8.01371 8.95102C8.10037 9.01679 8.1409 9.02415 8.16775 9.02416C8.19459 9.02416 8.23512 9.01681 8.32179 8.95106C8.41425 8.88092 8.52529 8.7713 8.69656 8.60107L10.7265 6.5835H9.47197C9.3339 6.5835 9.22197 6.47157 9.22197 6.3335Z" fill="#34E045"/>
</svg>
