<svg width="117" height="70" viewBox="0 0 117 70" fill="none" xmlns="http://www.w3.org/2000/svg">
<path d="M1 42.9998C1 42.9998 16.2821 24.7085 30 21.9998C40.431 19.9402 46.4876 27.0923 57 25.4998C73.2778 23.034 76.3958 5.4208 92.5 1.99988C101.477 0.0929484 115.5 1.99983 115.5 1.99983" stroke="#069855" stroke-width="2" stroke-linecap="round"/>
<path d="M30.5 21.8475C16.7821 24.5562 1.5 42.8475 1.5 42.8475V70H116V1.84749C116 1.84749 101.977 -0.0593953 93 1.84754C76.8958 5.26846 73.7778 22.8817 57.5 25.3475C46.9875 26.9399 40.931 19.7878 30.5 21.8475Z" fill="url(#paint0_linear_533_6056)"/>
<defs>
<linearGradient id="paint0_linear_533_6056" x1="59" y1="-24" x2="81" y2="35.5" gradientUnits="userSpaceOnUse">
<stop stop-color="#B2FF51"/>
<stop offset="1" stop-color="white" stop-opacity="0"/>
</linearGradient>
</defs>
</svg>
