<svg width="35" height="36" viewBox="0 0 35 36" fill="none" xmlns="http://www.w3.org/2000/svg"><circle cx="17.5" cy="18" r="17.5" fill="white"/><path d="M10.25 17.75H25.25C25.4489 17.75 25.6397 17.829 25.7803 17.9697C25.921 18.1103 26 18.3011 26 18.5C26 18.6989 25.921 18.8897 25.7803 19.0303C25.6397 19.171 25.4489 19.25 25.25 19.25H10.25C10.0511 19.25 9.86032 19.171 9.71967 19.0303C9.57902 18.8897 9.5 18.6989 9.5 18.5C9.5 18.3011 9.57902 18.1103 9.71967 17.9697C9.86032 17.829 10.0511 17.75 10.25 17.75Z" fill="#224886"/><path d="M10.5599 18.5L16.7804 24.719C16.9212 24.8598 17.0003 25.0508 17.0003 25.25C17.0003 25.4491 16.9212 25.6401 16.7804 25.781C16.6396 25.9218 16.4486 26.0009 16.2494 26.0009C16.0502 26.0009 15.8592 25.9218 15.7184 25.781L8.96839 19.031C8.89854 18.9613 8.84313 18.8785 8.80532 18.7874C8.76751 18.6963 8.74805 18.5986 8.74805 18.5C8.74805 18.4013 8.76751 18.3036 8.80532 18.2125C8.84313 18.1214 8.89854 18.0386 8.96839 17.969L15.7184 11.219C15.8592 11.0781 16.0502 10.999 16.2494 10.999C16.4486 10.999 16.6396 11.0781 16.7804 11.219C16.9212 11.3598 17.0003 11.5508 17.0003 11.75C17.0003 11.9491 16.9212 12.1401 16.7804 12.281L10.5599 18.5Z" fill="#224886"/></svg>