<svg width="31" height="31" viewBox="0 0 31 31" fill="none" xmlns="http://www.w3.org/2000/svg"><path d="M20.1582 9.90104L18.1917 7.93641L8.35886 17.7673C7.97161 18.1547 7.66445 18.6145 7.45492 19.1206C7.24539 19.6267 7.13759 20.1691 7.13768 20.7169C7.13777 21.2646 7.24574 21.807 7.45544 22.313C7.66514 22.819 7.97245 23.2788 8.35983 23.666C8.74721 24.0533 9.20707 24.3604 9.71315 24.57C10.2192 24.7795 10.7616 24.8873 11.3094 24.8872C11.8571 24.8871 12.3995 24.7791 12.9055 24.5694C13.4115 24.3597 13.8713 24.0524 14.2585 23.665L26.0579 11.8676C27.3616 10.5637 28.0939 8.79531 28.0937 6.95148C28.0935 5.10765 27.3609 3.33941 26.057 2.03576C24.753 0.732102 22.9847 -0.000181642 21.1408 3.37966e-08C19.297 0.00018171 17.5288 0.732814 16.2251 2.03673L3.83673 14.4232L3.80961 14.4484C0.0217969 18.2362 0.0217969 24.3742 3.80961 28.16C7.59742 31.9459 13.7354 31.9459 17.5232 28.16L17.5484 28.1329L17.5504 28.1349L26.0075 19.6796L24.041 17.715L15.5838 26.1683L15.5586 26.1935C14.2607 27.4888 12.502 28.2163 10.6684 28.2163C8.83471 28.2163 7.07597 27.4888 5.77811 26.1935C5.13478 25.5487 4.62505 24.7834 4.27813 23.9412C3.9312 23.0991 3.75392 22.1968 3.75644 21.286C3.75896 20.3752 3.94123 19.4738 4.29281 18.6336C4.64439 17.7934 5.15835 17.0309 5.80523 16.3897L5.8033 16.3878L18.1936 4.00135C19.8192 2.37385 22.4658 2.37385 24.0933 4.00135C25.7208 5.62885 25.7189 8.27354 24.0933 9.8991L12.2939 21.6965C12.0299 21.9394 11.6822 22.0709 11.3235 22.0635C10.9648 22.0561 10.6228 21.9104 10.369 21.6568C10.1151 21.4033 9.9691 21.0614 9.96135 20.7027C9.95359 20.344 10.0847 19.9962 10.3274 19.7319L20.1602 9.8991L20.1582 9.90104Z" fill="#1F4690"/></svg>