<svg xmlns="http://www.w3.org/2000/svg" width="124" height="124" viewBox="0 0 124 124" fill="none">
<path d="M124 62C124 96.2417 96.2417 124 62 124C27.7583 124 0 96.2417 0 62C0 27.7583 27.7583 0 62 0C96.2417 0 124 27.7583 124 62ZM6.97183 62C6.97183 92.3912 31.6088 117.028 62 117.028C92.3912 117.028 117.028 92.3912 117.028 62C117.028 31.6088 92.3912 6.97183 62 6.97183C31.6088 6.97183 6.97183 31.6088 6.97183 62Z" fill="#E9EDF3" fill-opacity="0.5"/>
<path d="M31.2761 12.201C30.2652 10.5625 30.7698 8.40542 32.4624 7.48821C41.9356 2.35501 52.603 -0.230635 63.4148 0.016144C74.2266 0.262923 84.7648 3.33258 93.994 8.89266C95.643 9.88615 96.0486 12.064 94.964 13.6547C93.8795 15.2453 91.7158 15.6451 90.0597 14.6634C81.9492 9.85565 72.7206 7.2022 63.2557 6.98616C53.7908 6.77013 44.4507 8.99975 36.1293 13.4324C34.4301 14.3376 32.287 13.8395 31.2761 12.201Z" fill="#224886"/>
</svg>