<svg width="21" height="21" viewBox="0 0 21 21" fill="none" xmlns="http://www.w3.org/2000/svg">
<path d="M15.9883 2.09863V3.7653M5.98828 2.09863V3.7653" stroke="black" stroke-opacity="0.6" stroke-width="1.5" stroke-linecap="round" stroke-linejoin="round"/>
<path d="M9.32161 14.599L9.32161 11.555C9.3216 11.3952 9.20766 11.2656 9.0671 11.2656H8.48828M12.3463 14.599L13.4751 11.5566C13.5279 11.4143 13.4156 11.2656 13.2555 11.2656H11.8216" stroke="black" stroke-opacity="0.6" stroke-width="1.5" stroke-linecap="round"/>
<path d="M3.07031 10.6343C3.07031 7.00325 3.07031 5.18771 4.11374 4.05968C5.15718 2.93164 6.83656 2.93164 10.1953 2.93164H11.7786C15.1374 2.93164 16.8168 2.93164 17.8602 4.05968C18.9036 5.18771 18.9036 7.00325 18.9036 10.6343V11.0623C18.9036 14.6934 18.9036 16.5089 17.8602 17.6369C16.8168 18.765 15.1374 18.765 11.7786 18.765H10.1953C6.83656 18.765 5.15718 18.765 4.11374 17.6369C3.07031 16.5089 3.07031 14.6934 3.07031 11.0623V10.6343Z" stroke="black" stroke-opacity="0.6" stroke-width="1.5" stroke-linecap="round" stroke-linejoin="round"/>
<path d="M5.98828 7.09863H15.9883" stroke="black" stroke-opacity="0.6" stroke-width="1.5" stroke-linecap="round" stroke-linejoin="round"/>
</svg>
