<svg xmlns="http://www.w3.org/2000/svg" width="24" height="24" viewBox="0 0 24 24" fill="none">
  <path d="M5.56184 12L11.7823 18.219C11.9232 18.3598 12.0023 18.5508 12.0023 18.75C12.0023 18.9491 11.9232 19.1401 11.7823 19.281C11.6415 19.4218 11.4505 19.5009 11.2513 19.5009C11.0522 19.5009 10.8612 19.4218 10.7203 19.281L3.97034 12.531C3.9005 12.4613 3.84508 12.3785 3.80727 12.2874C3.76946 12.1963 3.75 12.0986 3.75 12C3.75 11.9013 3.76946 11.8036 3.80727 11.7125C3.84508 11.6214 3.9005 11.5386 3.97034 11.469L10.7203 4.71897C10.8612 4.57814 11.0522 4.49902 11.2513 4.49902C11.4505 4.49902 11.6415 4.57814 11.7823 4.71897C11.9232 4.8598 12.0023 5.05081 12.0023 5.24997C12.0023 5.44913 11.9232 5.64014 11.7823 5.78097L5.56184 12Z" fill="#101828"/>
</svg>