<svg width="89" height="89" viewBox="0 0 89 89" fill="none" xmlns="http://www.w3.org/2000/svg">
<path d="M86 49.4416C82.6802 66.0579 70.1645 81.7039 52.6027 85.1999C44.0375 86.9074 35.1525 85.8664 27.2128 82.2249C19.2731 78.5834 12.6834 72.5272 8.38213 64.9186C4.08081 57.3101 2.28711 48.5369 3.25644 39.8485C4.22577 31.1601 7.9087 22.9992 13.7808 16.528C25.8251 3.24825 46.1623 -0.407339 62.7613 6.23919" stroke="#EF4343" stroke-width="5" stroke-linecap="round" stroke-linejoin="round"/>
<path d="M41.5 32.75H48.5C48.5 31.8217 48.1313 30.9315 47.4749 30.2751C46.8185 29.6187 45.9283 29.25 45 29.25C44.0717 29.25 43.1815 29.6187 42.5251 30.2751C41.8687 30.9315 41.5 31.8217 41.5 32.75ZM38.875 32.75C38.875 31.9457 39.0334 31.1492 39.3412 30.4061C39.649 29.6629 40.1002 28.9877 40.669 28.419C41.2377 27.8502 41.9129 27.399 42.6561 27.0912C43.3992 26.7834 44.1957 26.625 45 26.625C45.8043 26.625 46.6008 26.7834 47.3439 27.0912C48.0871 27.399 48.7623 27.8502 49.331 28.419C49.8998 28.9877 50.351 29.6629 50.6588 30.4061C50.9666 31.1492 51.125 31.9457 51.125 32.75H61.1875C61.5356 32.75 61.8694 32.8883 62.1156 33.1344C62.3617 33.3806 62.5 33.7144 62.5 34.0625C62.5 34.4106 62.3617 34.7444 62.1156 34.9906C61.8694 35.2367 61.5356 35.375 61.1875 35.375H58.8775L56.83 56.5693C56.6729 58.1932 55.9166 59.7004 54.7084 60.7969C53.5003 61.8935 51.927 62.5006 50.2955 62.5H39.7045C38.0733 62.5002 36.5004 61.8928 35.2927 60.7964C34.0849 59.6999 33.3288 58.1929 33.1718 56.5693L31.1225 35.375H28.8125C28.4644 35.375 28.1306 35.2367 27.8844 34.9906C27.6383 34.7444 27.5 34.4106 27.5 34.0625C27.5 33.7144 27.6383 33.3806 27.8844 33.1344C28.1306 32.8883 28.4644 32.75 28.8125 32.75H38.875ZM42.375 41.0625C42.375 40.7144 42.2367 40.3806 41.9906 40.1344C41.7444 39.8883 41.4106 39.75 41.0625 39.75C40.7144 39.75 40.3806 39.8883 40.1344 40.1344C39.8883 40.3806 39.75 40.7144 39.75 41.0625V54.1875C39.75 54.5356 39.8883 54.8694 40.1344 55.1156C40.3806 55.3617 40.7144 55.5 41.0625 55.5C41.4106 55.5 41.7444 55.3617 41.9906 55.1156C42.2367 54.8694 42.375 54.5356 42.375 54.1875V41.0625ZM48.9375 39.75C49.2856 39.75 49.6194 39.8883 49.8656 40.1344C50.1117 40.3806 50.25 40.7144 50.25 41.0625V54.1875C50.25 54.5356 50.1117 54.8694 49.8656 55.1156C49.6194 55.3617 49.2856 55.5 48.9375 55.5C48.5894 55.5 48.2556 55.3617 48.0094 55.1156C47.7633 54.8694 47.625 54.5356 47.625 54.1875V41.0625C47.625 40.7144 47.7633 40.3806 48.0094 40.1344C48.2556 39.8883 48.5894 39.75 48.9375 39.75ZM35.7845 56.3172C35.8789 57.2914 36.3327 58.1954 37.0574 58.8532C37.7821 59.5109 38.7258 59.8752 39.7045 59.875H50.2955C51.2742 59.8752 52.2179 59.5109 52.9426 58.8532C53.6673 58.1954 54.1211 57.2914 54.2155 56.3172L56.242 35.375H33.758L35.7845 56.3172Z" fill="#EF4343"/>
</svg>
