<svg width="24" height="24" viewBox="0 0 24 24" fill="none" xmlns="http://www.w3.org/2000/svg">
<circle cx="12" cy="12" r="12" fill="#063C84"/>
<path d="M9.08203 9.0835H8.4987C8.18928 9.0835 7.89253 9.20641 7.67374 9.4252C7.45495 9.644 7.33203 9.94074 7.33203 10.2502V15.5002C7.33203 15.8096 7.45495 16.1063 7.67374 16.3251C7.89253 16.5439 8.18928 16.6668 8.4987 16.6668H13.7487C14.0581 16.6668 14.3549 16.5439 14.5737 16.3251C14.7924 16.1063 14.9154 15.8096 14.9154 15.5002V14.9168" stroke="white" stroke-linecap="round" stroke-linejoin="round"/>
<path d="M14.3333 7.91673L16.0833 9.66673M16.8913 8.84131C17.121 8.61157 17.2501 8.29997 17.2501 7.97506C17.2501 7.65016 17.121 7.33856 16.8913 7.10881C16.6615 6.87907 16.3499 6.75 16.025 6.75C15.7001 6.75 15.3885 6.87907 15.1588 7.10881L10.25 12.0001V13.7501H12L16.8913 8.84131Z" stroke="white" stroke-linecap="round" stroke-linejoin="round"/>
</svg>
