<svg width="20" height="20" viewBox="0 0 20 20" fill="none" xmlns="http://www.w3.org/2000/svg">
<path d="M10.6263 7.49984C10.6263 7.15466 10.3465 6.87484 10.0013 6.87484C9.65612 6.87484 9.3763 7.15466 9.3763 7.49984L9.3763 9.37486H7.5013C7.15612 9.37486 6.8763 9.65468 6.8763 9.99986C6.8763 10.345 7.15612 10.6249 7.5013 10.6249H9.3763V12.4998C9.3763 12.845 9.65612 13.1248 10.0013 13.1248C10.3465 13.1248 10.6263 12.845 10.6263 12.4998L10.6263 10.6249H12.5013C12.8465 10.6249 13.1263 10.345 13.1263 9.99986C13.1263 9.65468 12.8465 9.37486 12.5013 9.37486H10.6263V7.49984Z" fill="#224886"/>
<path fill-rule="evenodd" clip-rule="evenodd" d="M10.0491 1.0415H9.95349C8.02983 1.04149 6.52229 1.04149 5.34606 1.19963C4.14211 1.36149 3.19209 1.69928 2.44642 2.44495C1.70074 3.19063 1.36296 4.14065 1.20109 5.34459C1.04295 6.52083 1.04296 8.02835 1.04297 9.95201V10.0477C1.04296 11.9713 1.04295 13.4788 1.20109 14.6551C1.36296 15.859 1.70074 16.809 2.44642 17.5547C3.19209 18.3004 4.14211 18.6382 5.34606 18.8C6.5223 18.9582 8.02983 18.9582 9.95349 18.9582H10.0491C11.9728 18.9582 13.4803 18.9582 14.6565 18.8C15.8605 18.6382 16.8105 18.3004 17.5562 17.5547C18.3019 16.809 18.6396 15.859 18.8015 14.6551C18.9597 13.4788 18.9596 11.9713 18.9596 10.0476V9.95203C18.9596 8.02836 18.9597 6.52083 18.8015 5.34459C18.6396 4.14065 18.3019 3.19063 17.5562 2.44495C16.8105 1.69928 15.8605 1.36149 14.6565 1.19963C13.4803 1.04149 11.9728 1.04149 10.0491 1.0415ZM3.3303 3.32883C3.80501 2.85412 4.44728 2.58171 5.51262 2.43848C6.59593 2.29283 8.01945 2.2915 10.0013 2.2915C11.9832 2.2915 13.4067 2.29283 14.49 2.43848C15.5553 2.58171 16.1976 2.85412 16.6723 3.32883C17.147 3.80355 17.4194 4.44582 17.5627 5.51115C17.7083 6.59447 17.7096 8.01798 17.7096 9.99984C17.7096 11.9817 17.7083 13.4052 17.5627 14.4885C17.4194 15.5539 17.147 16.1961 16.6723 16.6708C16.1976 17.1456 15.5553 17.418 14.49 17.5612C13.4067 17.7068 11.9832 17.7082 10.0013 17.7082C8.01945 17.7082 6.59593 17.7068 5.51262 17.5612C4.44728 17.418 3.80501 17.1456 3.3303 16.6708C2.85559 16.1961 2.58318 15.5539 2.43994 14.4885C2.2943 13.4052 2.29297 11.9817 2.29297 9.99984C2.29297 8.01798 2.2943 6.59447 2.43994 5.51115C2.58318 4.44582 2.85559 3.80355 3.3303 3.32883Z" fill="#224886"/>
</svg>
